<?xml version="1.0" encoding="UTF-8"?> <svg xmlns="http://www.w3.org/2000/svg" xmlns:xlink="http://www.w3.org/1999/xlink" id="Layer_1" data-name="Layer 1" viewBox="0 0 300 120"><defs><style>.cls-1{fill:none;}.cls-2{fill:#ffffff;}.cls-3{fill:#67bc6b;}.cls-4{fill:#398f43;}.cls-5{clip-path:url(#clip-path);}.cls-6{fill:url(#linear-gradient);}.cls-7{clip-path:url(#clip-path-2);}.cls-8{fill:#fafbfc;}.cls-9{fill:#e0e1e0;}.cls-10{fill:#fff;}</style><clipPath id="clip-path"><path class="cls-1" d="M17.99609,42.74086c-6.35174,0-11.85138,2.6092-14.07908,3.4251v3.698c0,10.27807.039,17.37609,6.01758,23.35191a73.889,73.889,0,0,0,7.90557,6.07606,72.78376,72.78376,0,0,0,7.9529-6.07606c5.98974-5.98974,5.97024-12.28022,5.97024-21.97908V46.1214C28.97589,45.261,23.97747,42.74086,17.99609,42.74086Z"></path></clipPath><linearGradient id="linear-gradient" x1="17.04941" y1="216.35309" x2="17.04941" y2="214.3026" gradientTransform="matrix(0.99815, 0, 0, -0.99815, 0.88908, 261.72651)" gradientUnits="userSpaceOnUse"><stop offset="0" stop-color="#273339" stop-opacity="0.35"></stop><stop offset="0.42" stop-color="#273339" stop-opacity="0.15"></stop><stop offset="0.89" stop-color="#273339" stop-opacity="0.02"></stop><stop offset="1" stop-color="#273339" stop-opacity="0"></stop></linearGradient><clipPath id="clip-path-2"><path class="cls-1" d="M17.85408,46.6477c-3.92077,0-7.57976,2.7345-7.57976,2.7345s.25063,5.67786.25063,7.95569c0,4.92323.93841,8.99157,3.12713,12.02961a45.272,45.272,0,0,0,4.20478,4.52781,47.7957,47.7957,0,0,0,4.1324-4.52781c2.18872-3.038,3.06309-7.10638,3.06309-12.0296,0-2.27783.30075-7.95569.30075-7.95569S21.58826,46.6477,17.85408,46.6477Z"></path></clipPath></defs><path class="cls-2" d="M73.04972,55.05052a6.88449,6.88449,0,1,0,6.9062,6.88445A6.78241,6.78241,0,0,0,73.04972,55.05052Zm0,11.05611a4.18238,4.18238,0,1,1,3.883-4.17166A3.97985,3.97985,0,0,1,73.04972,66.10663Z"></path><path class="cls-2" d="M87.94847,55.05052a6.88449,6.88449,0,1,0,6.9062,6.88445A6.78432,6.78432,0,0,0,87.94847,55.05052Zm0,11.05611a4.18238,4.18238,0,1,1,3.883-4.17166A3.97986,3.97986,0,0,1,87.94847,66.10663Z"></path><path class="cls-2" d="M106.26152,56.59005H106.156a4.77073,4.77073,0,0,0-3.62536-1.53953,6.88915,6.88915,0,0,0,0,13.76581A4.68728,4.68728,0,0,0,106.156,67.252h.10552v.99017c0,2.63519-1.40606,4.03506-3.675,4.03506a3.80285,3.80285,0,0,1-3.46708-2.44277l-2.63211,1.09569a6.556,6.556,0,0,0,6.1023,4.05681c3.54466,0,6.543-2.07652,6.543-7.16073V55.46953h-2.87111Zm-3.46084,9.51658a4.18657,4.18657,0,0,1,0-8.3433c2.05789,0,3.675,1.77234,3.675,4.19648A3.84753,3.84753,0,0,1,102.80068,66.10663Z"></path><rect class="cls-2" x="110.91739" y="48.22192" width="2.94871" height="20.1754"></rect><path class="cls-2" d="M127.52019,59.427a6.39386,6.39386,0,0,0-5.89122-4.37961,6.54215,6.54215,0,0,0-6.49336,6.88447,6.73583,6.73583,0,0,0,6.83169,6.88445,6.85257,6.85257,0,0,0,5.736-3.05111l-2.34656-1.56439a3.92918,3.92918,0,0,1-3.38947,1.9058,3.50375,3.50375,0,0,1-3.33668-2.08583l9.20306-3.81158ZM118.134,61.72391a3.77624,3.77624,0,0,1,3.59744-4.01334,2.6654,2.6654,0,0,1,2.55451,1.45883Z"></path><path class="cls-2" d="M54.98188,57.22325V60.144l6.98068-.00311a6.054,6.054,0,0,1-1.583,3.61608,7.15152,7.15152,0,0,1-5.3977,2.13859,7.76977,7.76977,0,0,1,0-15.53817,7.445,7.445,0,0,1,5.26732,2.08583l2.061-2.061A10.18607,10.18607,0,0,0,54.985,47.43661a10.691,10.691,0,1,0,0,21.37972A9.77509,9.77509,0,0,0,62.44057,65.818a10.53284,10.53284,0,0,0,2.38379-8.59472Z"></path><path class="cls-2" d="M142.84286,58.09124a13.22846,13.22846,0,0,1-3.67688-1.68563,2.22388,2.22388,0,0,1-.76721-1.686,2.29856,2.29856,0,0,1,.97881-1.92249,4.07316,4.07316,0,0,1,4.69541-.08928,3.36664,3.36664,0,0,1,1.25652,1.75933l2.275-.95242a5.2048,5.2048,0,0,0-2.11625-2.72466,6.38346,6.38346,0,0,0-3.75647-1.111,6.08369,6.08369,0,0,0-4.15309,1.48143,4.61341,4.61341,0,0,0-1.66663,3.57108,4.86347,4.86347,0,0,0,3.01566,4.5235q.55561.29148,2.83065,1.111a8.318,8.318,0,0,1,3.06847,1.58723,2.7362,2.7362,0,0,1,.873,2.037,2.79957,2.79957,0,0,1-1.05822,2.28815,4.18212,4.18212,0,0,1-2.72466.85972,3.84561,3.84561,0,0,1-1.45483-.27771,4.48193,4.48193,0,0,1-1.25653-.76721,4.96277,4.96277,0,0,1-.99212-1.17713,6.00638,6.00638,0,0,1-.66122-1.53423l-2.328.95222a7.0277,7.0277,0,0,0,2.48665,3.75629,6.647,6.647,0,0,0,4.15329,1.37562,6.96141,6.96141,0,0,0,4.4969-1.48466,4.93934,4.93934,0,0,0,1.82543-4.004,5.13436,5.13436,0,0,0-1.23012-3.48636A9.3716,9.3716,0,0,0,142.84286,58.09124Z"></path><path class="cls-2" d="M155.61974,55.65739A5.97391,5.97391,0,0,0,150.382,58.197l2.14265,1.349a3.72962,3.72962,0,0,1,3.22727-1.71944,3.4496,3.4496,0,0,1,2.35444.88613,2.77114,2.77114,0,0,1,1.00522,2.15594v.55561a7.1873,7.1873,0,0,0-3.57127-.79362,6.41,6.41,0,0,0-4.06059,1.19043,3.85339,3.85339,0,0,0-1.52113,3.20086,4.05479,4.05479,0,0,0,1.44173,3.17447,5.22716,5.22716,0,0,0,3.58457,1.26963,4.643,4.643,0,0,0,4.02089-2.22205h.1058v1.79884h2.32785v-7.989a5.11946,5.11946,0,0,0-1.56083-3.95478A6.034,6.034,0,0,0,155.61974,55.65739Zm2.28815,10.502a3.879,3.879,0,0,1-2.738,1.13762,2.96833,2.96833,0,0,1-1.89135-.635,1.9428,1.9428,0,0,1-.80691-1.58723,2.12116,2.12116,0,0,1,.99211-1.77224,4.12227,4.12227,0,0,1,2.47336-.71422,5.00058,5.00058,0,0,1,3.17446.89942A3.56217,3.56217,0,0,1,157.90789,66.15941Z"></path><path class="cls-2" d="M166.74347,51.08109a4.14858,4.14858,0,0,0-1.23012,3.12147v1.87823h-2.43366v2.22205h2.43366v10.74H167.947v-10.74h3.38569V56.08079H167.947V54.44056a2.35121,2.35121,0,0,1,.56909-1.65333,1.89769,1.89769,0,0,1,1.468-.62152,3.15059,3.15059,0,0,1,1.42843.31741l.661-2.14284a4.60775,4.60775,0,0,0-2.16924-.44962A4.35609,4.35609,0,0,0,166.74347,51.08109Z"></path><path class="cls-2" d="M178.52842,55.65739a5.95374,5.95374,0,0,0-4.6029,1.97094,7.03856,7.03856,0,0,0-1.79883,4.93341,6.911,6.911,0,0,0,1.85164,4.9469,6.19925,6.19925,0,0,0,4.70851,1.95744,6.69649,6.69649,0,0,0,3.50536-.92582,6.46459,6.46459,0,0,0,2.42036-2.56605l-2.16925-1.058A4.101,4.101,0,0,1,175.88278,66.08a4.22373,4.22373,0,0,1-1.26963-3.06847h10.18442l.02659-.2646a7.45762,7.45762,0,0,0-1.70614-5.22442A5.91618,5.91618,0,0,0,178.52842,55.65739Zm-3.72988,5.34371a4.04473,4.04473,0,0,1,1.30914-2.27505,3.5287,3.5287,0,0,1,2.36755-.84642,3.84217,3.84217,0,0,1,2.65856.88612,3.22832,3.22832,0,0,1,1.09792,2.23535Z"></path><path class="cls-2" d="M203.05,59.30806v-.1058a3.99725,3.99725,0,0,0,2.56586-3.94168A4.73849,4.73849,0,0,0,204.002,51.5837a5.514,5.514,0,0,0-3.86209-1.48143h-6.85115v18.9406h7.22156a5.70126,5.70126,0,0,0,4.04748-1.53423,4.99111,4.99111,0,0,0,1.69284-3.86228,4.39071,4.39071,0,0,0-.873-2.685A4.6026,4.6026,0,0,0,203.05,59.30806Zm-7.32756-6.87794h4.5235a2.79692,2.79692,0,0,1,2.08984.873,2.81174,2.81174,0,0,1-.02659,4.04729,2.94544,2.94544,0,0,1-2.16925.873h-4.4175Zm7.14216,13.35908a3.061,3.061,0,0,1-2.24826.92582h-4.8939V60.49849h4.78791a3.15829,3.15829,0,0,1,2.328.92582,2.97246,2.97246,0,0,1,.92582,2.16924A3.04506,3.04506,0,0,1,202.86458,65.7892Z"></path><path class="cls-2" d="M212.53348,56.4379a3.51177,3.51177,0,0,0-1.52075,1.75914h-.106V56.08079h-2.328V69.04287h2.434V61.90052a3.71593,3.71593,0,0,1,1.01814-2.59246,3.1497,3.1497,0,0,1,2.39414-1.111,4.03691,4.03691,0,0,1,1.42844.1852l.7408-2.35444a4.56171,4.56171,0,0,0-1.79883-.31741A4.22266,4.22266,0,0,0,212.53348,56.4379Z"></path><path class="cls-2" d="M223.31283,55.65739a6.40148,6.40148,0,0,0-4.78791,1.95764,7.45343,7.45343,0,0,0,0,9.89361,6.40065,6.40065,0,0,0,4.78791,1.95744,6.31692,6.31692,0,0,0,4.76169-1.95744,7.37688,7.37688,0,0,0,0-9.89361A6.31774,6.31774,0,0,0,223.31283,55.65739Zm3.01566,10.29042a4.15609,4.15609,0,0,1-6.03133,0,5.28267,5.28267,0,0,1,0-6.74555,4.09925,4.09925,0,0,1,6.03133,0,5.28264,5.28264,0,0,1,0,6.74555Z"></path><polygon class="cls-2" points="244.952 65.868 244.925 65.868 241.724 56.081 239.211 56.081 236.011 65.868 235.984 65.868 233.101 56.081 230.561 56.081 234.741 69.043 237.201 69.043 240.402 59.096 243.629 69.043 246.116 69.043 250.295 56.081 247.809 56.081 244.952 65.868"></polygon><path class="cls-2" d="M257.94055,61.55652l-1.95764-.50262q-2.08965-.4761-2.08984-1.58723a1.37176,1.37176,0,0,1,.7541-1.16383,3.12782,3.12782,0,0,1,1.70614-.47621,3.777,3.777,0,0,1,1.86494.46292,2.73508,2.73508,0,0,1,1.20391,1.28293l2.16887-.89923a4.45583,4.45583,0,0,0-1.94434-2.19565,6.60927,6.60927,0,0,0-6.79836.25131,3.37032,3.37032,0,0,0-1.44172,2.84357q0,2.69825,3.78268,3.65067l2.222.55541q1.905.58239,1.90483,1.82543a1.42659,1.42659,0,0,1-.78032,1.19043,3.52261,3.52261,0,0,1-1.94434.50261,3.37293,3.37293,0,0,1-1.99714-.64811,4.02385,4.02385,0,0,1-1.38893-1.81214l-2.16924.92582a5.61126,5.61126,0,0,0,2.11644,2.68515,5.92174,5.92174,0,0,0,3.43887,1.01833,5.85452,5.85452,0,0,0,3.72988-1.16383,3.51427,3.51427,0,0,0,1.48124-2.85705Q261.80263,62.509,257.94055,61.55652Z"></path><rect class="cls-2" x="263.99809" y="56.08079" width="2.43403" height="12.96208"></rect><path class="cls-2" d="M265.2153,49.89066a1.716,1.716,0,1,0,1.21682.50262A1.65854,1.65854,0,0,0,265.2153,49.89066Z"></path><path class="cls-2" d="M276.13977,55.65739a4.88985,4.88985,0,0,0-2.39377.635,4.32236,4.32236,0,0,0-1.70614,1.58723h-.106V56.08079h-2.328V69.04287h2.434V61.87392a4.264,4.264,0,0,1,.97863-2.81716,3.04233,3.04233,0,0,1,2.43365-1.17713q3.1211,0,3.20106,3.17427v7.989h2.43366V60.8953a5.4384,5.4384,0,0,0-1.28293-3.87539A4.79188,4.79188,0,0,0,276.13977,55.65739Z"></path><path class="cls-2" d="M293.75774,56.08079v1.79884h-.106a4.7891,4.7891,0,0,0-1.86495-1.62693,5.57713,5.57713,0,0,0-2.55256-.59531,5.699,5.699,0,0,0-4.3647,2.01045,7.07712,7.07712,0,0,0-1.79883,4.8939,7.17273,7.17273,0,0,0,1.79883,4.9203,5.72947,5.72947,0,0,0,4.3647,1.984,5.5771,5.5771,0,0,0,2.55256-.59511,4.789,4.789,0,0,0,1.86495-1.62694h.106v1.24323a4.61888,4.61888,0,0,1-1.11122,3.28027,4.025,4.025,0,0,1-3.09468,1.19042,3.85793,3.85793,0,0,1-2.27524-.68781A3.64591,3.64591,0,0,1,285.901,70.4449l-2.30145.95223a5.02633,5.02633,0,0,0,.8468,1.53442,5.59361,5.59361,0,0,0,1.33574,1.19043,6.59541,6.59541,0,0,0,1.73273.78031,7.24065,7.24065,0,0,0,2.037.27771,6.43713,6.43713,0,0,0,4.76132-1.79883,6.61486,6.61486,0,0,0,1.77262-4.89391V56.08079Zm-1.19024,9.867a3.727,3.727,0,0,1-2.93664,1.29622,3.79489,3.79489,0,0,1-2.93627-1.32263,4.77156,4.77156,0,0,1-1.19023-3.35966,4.83224,4.83224,0,0,1,1.19023-3.35948,3.79555,3.79555,0,0,1,2.93627-1.32263,3.74557,3.74557,0,0,1,2.93664,1.32263,5.37377,5.37377,0,0,1,0,6.74555Z"></path><path class="cls-3" d="M3.91422,46.16874v3.698c0,10.27807.01949,17.37609,5.99809,23.35191a73.46775,73.46775,0,0,0,7.92506,6.07606V42.74086C11.98965,42.74086,6.14192,45.35285,3.91422,46.16874Z"></path><path class="cls-4" d="M31.76052,46.1214c-2.78463-.86323-8.07543-3.38054-13.92315-3.38054V79.29191a72.78276,72.78276,0,0,0,7.9529-6.07606c5.98974-5.98974,5.97025-12.28022,5.97025-21.97908Z"></path><g class="cls-5"><rect class="cls-6" x="2.84213" y="46.16317" width="30.12969" height="2.47832"></rect></g><g class="cls-7"><circle class="cls-8" cx="17.96267" cy="74.49678" r="4.52781"></circle><path class="cls-8" d="M17.96268,82.34109A7.76634,7.76634,0,1,1,25.729,74.57476,7.76632,7.76632,0,0,1,17.96268,82.34109Zm0-14.01226a6.24593,6.24593,0,1,0,6.24592,6.24593v0A6.25428,6.25428,0,0,0,17.96268,68.32883Z"></path><path class="cls-8" d="M17.96268,85.66593A11.09118,11.09118,0,1,1,29.05387,74.57476h0A11.10232,11.10232,0,0,1,17.96268,85.66593Zm0-20.58676a9.49559,9.49559,0,1,0,9.49558,9.4956v0A9.50671,9.50671,0,0,0,17.96268,65.082Z"></path><circle class="cls-8" cx="17.74547" cy="56.26303" r="4.58907"></circle></g><path class="cls-9" d="M31.76052,45.9961V43.15578a3.02576,3.02576,0,0,0-2.67324-2.45048H6.35633A2.77058,2.77058,0,0,0,3.917,43.15578V45.9961H31.76052Z"></path><circle class="cls-10" cx="7.35044" cy="43.68207" r="0.81868"></circle><circle class="cls-10" cx="10.3467" cy="43.68207" r="0.81868"></circle></svg>