<?xml version="1.0" standalone="no"?>
<!DOCTYPE svg PUBLIC "-//W3C//DTD SVG 20010904//EN"
 "http://www.w3.org/TR/2001/REC-SVG-20010904/DTD/svg10.dtd">
<svg version="1.0" xmlns="http://www.w3.org/2000/svg"
 width="217.000000pt" height="217.000000pt" viewBox="0 0 217.000000 217.000000"
 preserveAspectRatio="xMidYMid meet">
<metadata>
Created by potrace 1.14, written by Peter Selinger 2001-2017
</metadata>
<g transform="translate(0.000000,217.000000) scale(0.100000,-0.100000)"
fill="#000000" stroke="none">
<path d="M479 2023 c-46 -13 -100 -34 -119 -47 -61 -40 -134 -120 -167 -182
-54 -101 -60 -144 -59 -404 l1 -235 95 0 95 0 2 220 c1 242 9 283 69 359 41
53 134 105 203 114 73 10 915 8 961 -2 54 -12 157 -73 185 -110 14 -19 35 -60
47 -92 21 -57 21 -74 21 -564 l-1 -505 -25 -57 c-42 -95 -128 -166 -222 -184
-55 -10 -920 -11 -979 -1 -102 17 -188 86 -234 185 -24 54 -25 60 -25 278 0
122 -3 228 -7 235 -10 15 -146 20 -173 7 -16 -8 -18 -28 -17 -238 1 -242 11
-312 51 -393 47 -93 149 -196 233 -237 99 -48 120 -49 641 -50 518 0 571 3
661 46 103 48 238 199 266 297 6 23 15 47 19 52 3 6 6 262 4 570 -2 618 -2
614 -66 720 -66 111 -189 201 -316 231 -15 4 -260 8 -544 9 l-515 2 -85 -24z"/>
<path d="M1003 1640 c-37 -22 -59 -52 -69 -95 -13 -57 -66 -143 -103 -170 -51
-35 -92 -45 -182 -45 -93 0 -136 -23 -158 -86 -28 -80 -8 -116 146 -257 74
-68 91 -138 55 -234 -16 -44 -18 -60 -13 -101 0 -7 41 23 90 69 79 72 91 87
100 128 24 112 -9 185 -128 284 -18 15 -30 31 -27 35 4 3 37 7 74 8 37 1 83 8
102 16 66 28 133 117 164 216 11 35 22 26 46 -40 44 -121 101 -175 195 -185
49 -5 58 -3 90 22 47 35 129 115 124 120 -2 2 -31 4 -64 6 -113 4 -186 64
-234 193 -24 65 -51 105 -84 123 -33 18 -88 15 -124 -7z"/>
<path d="M1570 1291 c-9 -9 -43 -38 -75 -66 -33 -27 -92 -81 -131 -120 -93
-93 -107 -139 -90 -304 l7 -74 -48 35 c-72 53 -108 68 -160 69 -82 2 -145 -35
-268 -156 -76 -74 -100 -108 -89 -126 13 -22 75 -40 117 -34 43 6 117 47 117
65 0 5 20 21 45 36 61 35 117 28 172 -22 84 -76 163 -97 229 -60 68 38 86 106
57 213 -22 77 -21 138 1 180 8 15 54 66 102 113 96 93 118 131 105 176 -16 54
-23 65 -50 78 -22 11 -28 10 -41 -3z"/>
</g>
</svg>
